<?xml version="1.0" encoding="utf-8"?>
<!-- Generator: Adobe Illustrator 16.0.3, SVG Export Plug-In . SVG Version: 6.00 Build 0)  -->
<!DOCTYPE svg PUBLIC "-//W3C//DTD SVG 1.1//EN" "http://www.w3.org/Graphics/SVG/1.1/DTD/svg11.dtd">
<svg version="1.1"
	 id="svg2" xmlns:inkscape="http://www.inkscape.org/namespaces/inkscape" xmlns:sodipodi="http://sodipodi.sourceforge.net/DTD/sodipodi-0.dtd" xmlns:dc="http://purl.org/dc/elements/1.1/" xmlns:cc="http://creativecommons.org/ns#" xmlns:rdf="http://www.w3.org/1999/02/22-rdf-syntax-ns#" xmlns:svg="http://www.w3.org/2000/svg" inkscape:version="0.48.4 r9939" sodipodi:docname="MSX.eps"
	 xmlns="http://www.w3.org/2000/svg" xmlns:xlink="http://www.w3.org/1999/xlink" x="0px" y="0px" width="162.988px"
	 height="66.012px" viewBox="0 0 162.988 66.012" enable-background="new 0 0 162.988 66.012" xml:space="preserve">
<sodipodi:namedview  borderopacity="1" pagecolor="#ffffff" bordercolor="#666666" objecttolerance="10" gridtolerance="10" guidetolerance="10" showgrid="false" inkscape:zoom="2.6566454" inkscape:cx="82.246581" inkscape:cy="33.006248" id="namedview4" inkscape:current-layer="g10" inkscape:window-maximized="1" inkscape:window-y="27" inkscape:window-x="0" inkscape:pageshadow="2" inkscape:pageopacity="0" inkscape:window-height="984" inkscape:window-width="1680">
	</sodipodi:namedview>
<g id="g10" transform="matrix(1.25,0,0,-1.25,0,66.0125)" inkscape:label="ink_ext_XXXXXX" inkscape:groupmode="layer">
	<g id="g12" transform="scale(0.1,0.1)">
		<path id="path14" fill="#211E1F" d="M0,0.002h1303.941v528.082H0V0.002z"/>
		<path id="path16" fill="#FFFFFF" d="M1200.777,453.748l-123.969-181.055l134.844-197.816h-124.523l-74.086,105.906L938.355,74.627
			H814.668c3.359,6.969,135.391,198.066,135.391,198.066l-56.273,78.301l-238.746-0.273c-11.133-0.875-24.785,2.5-30.371-10.059
			c-1.953-4.16-2.793-10.293-0.547-14.492c1.934-4.727,6.406-9.18,11.406-10.566l7.52-0.566h95.559
			c44.281-1.113,85.258-28.672,104.453-68.52c17.016-33.438,14.5-79.117-4.453-110.891c-23.938-40.375-66.578-62.953-112.813-61.297
			H460.019c0,0-40.684,146.844-40.957,147.094L378.105,74.33l-96.933-0.016l-39.004,147.672L199.531,74.627H92.285
			c0,0,98.613,354.902,105.02,378.32h90.566l42.617-158.242l43.457,158.242l88.867,0.023l76.055-275.57h177.184
			c12.227,0.586,29.242-2.758,34.258,12.266c1.953,6.719,0.297,13.672-4.453,18.398c-4.469,3.906-10.039,5-15.875,5l-95.273,0.016
			c-45.137,1.391-89.98,30.922-106.699,74.359c-18.105,43.477-7.52,95.586,25.625,129.242c23.398,23.453,51.25,35.152,83.867,36.539
			l312.559,0.273l62.984-90.801l65.156,91.074L1200.777,453.748"/>
	</g>
</g>
</svg>
